<?xml version="1.0" standalone="no"?><!DOCTYPE svg PUBLIC "-//W3C//DTD SVG 1.1//EN" "http://www.w3.org/Graphics/SVG/1.1/DTD/svg11.dtd"><svg t="1708510041567" class="icon" viewBox="0 0 1024 1024" version="1.1" xmlns="http://www.w3.org/2000/svg" p-id="33785" xmlns:xlink="http://www.w3.org/1999/xlink" width="200" height="200"><path d="M856.967 480h134.685c17.673 0 32 14.327 32 32 0 17.673-14.327 32-32 32H856.967c-14.209 55.207-64.324 96-123.967 96-70.692 0-128-57.308-128-128 0-70.692 57.308-128 128-128 59.643 0 109.758 40.793 123.967 96zM132.033 896H32c-17.673 0-32-14.327-32-32 0-17.673 14.327-32 32-32h100.033c14.209-55.207 64.324-96 123.967-96 70.692 0 128 57.308 128 128 0 70.692-57.308 128-128 128-59.643 0-109.758-40.793-123.967-96z m0-704H32c-17.673 0-32-14.327-32-32 0-17.673 14.327-32 32-32h100.033C146.242 72.793 196.357 32 256 32c70.692 0 128 57.308 128 128 0 70.692-57.308 128-128 128-59.643 0-109.758-40.793-123.967-96zM256 224c35.346 0 64-28.654 64-64 0-35.346-28.654-64-64-64-35.346 0-64 28.654-64 64 0 35.346 28.654 64 64 64z m0 704c35.346 0 64-28.654 64-64 0-35.346-28.654-64-64-64-35.346 0-64 28.654-64 64 0 35.346 28.654 64 64 64z m477-352c35.346 0 64-28.654 64-64 0-35.346-28.654-64-64-64-35.346 0-64 28.654-64 64 0 35.346 28.654 64 64 64zM494 128h498.045c17.673 0 32 14.327 32 32 0 17.673-14.327 32-32 32H494c-17.673 0-32-14.327-32-32 0-17.673 14.327-32 32-32z m0 704h498.045c17.673 0 32 14.327 32 32 0 17.673-14.327 32-32 32H494c-17.673 0-32-14.327-32-32 0-17.673 14.327-32 32-32zM32 480h463c17.673 0 32 14.327 32 32 0 17.673-14.327 32-32 32H32c-17.673 0-32-14.327-32-32 0-17.673 14.327-32 32-32z" fill="#297d98" p-id="33786"></path></svg>